<svg xmlns="http://www.w3.org/2000/svg" viewBox="0 0 120 120" width="120" height="120">
  <defs>
    <linearGradient id="gradient1" x1="0%" y1="0%" x2="100%" y2="100%">
      <stop offset="0%" style="stop-color:#8B5CF6;stop-opacity:1" />
      <stop offset="50%" style="stop-color:#6D28D9;stop-opacity:1" />
      <stop offset="100%" style="stop-color:#4C1D95;stop-opacity:1" />
    </linearGradient>
    <linearGradient id="gradient2" x1="0%" y1="0%" x2="100%" y2="100%">
      <stop offset="0%" style="stop-color:#34D399;stop-opacity:1" />
      <stop offset="100%" style="stop-color:#10B981;stop-opacity:1" />
    </linearGradient>
    <linearGradient id="gradient3" x1="0%" y1="0%" x2="100%" y2="100%">
      <stop offset="0%" style="stop-color:#E0F2FE;stop-opacity:1" />
      <stop offset="100%" style="stop-color:#BAE6FD;stop-opacity:1" />
    </linearGradient>
  </defs>
  
  <!-- Background -->
  <rect width="120" height="120" rx="24" fill="url(#gradient1)"/>
  
  <!-- Main F shape -->
  <path d="M25 25 L25 95 L35 95 L35 65 L65 65 L65 55 L35 55 L35 35 L75 35 L75 25 Z" fill="white" opacity="0.95"/>
  
  <!-- W shape -->
  <path d="M45 45 L50 75 L55 60 L60 75 L65 45 L70 45 L62 85 L58 85 L55 70 L52 85 L48 85 L40 45 Z" fill="url(#gradient1)" opacity="0.8"/>
  
  <!-- Checkmark -->
  <path d="M75 40 L85 50 L95 30 L100 35 L85 60 L70 45 Z" fill="url(#gradient2)" opacity="0.9"/>
  
  <!-- Light accent -->
  <path d="M85 45 L92 38 L95 41 L88 48 Z" fill="url(#gradient3)" opacity="0.7"/>
</svg>